# xmcd
#
# Track frame offsets: 
#        150
#        19350
#        33225
#        46925
#        58575
#        80400
#        95050
#        106725
#        117150
#        147250
#        158800
#        179150
#        195525
#        215500
#        236950
#        264550
#        286800
#        301375
#        315850
#
# Disc length: 4417 seconds
#
# Revision: 7
# Processed by: cddbd v1.5.2PL0 Copyright (c) Steve Scherf et al.
# Submitted via: ExactAudioCopyFreeDBPlugin 1.0
#
DISCID=0b113f13
DTITLE=Various Artist - The Encyclopedia Of Jazz [CD1)
DYEAR=2005
DGENRE=Jazz, Swing, Big Band
TTITLE0=Louis Armstrong - When The Saints Go Marchin' In
TTITLE1=Count Basie - One O'Clock Jump
TTITLE2=Sidney Bechet - Summertime
TTITLE3=Bix Beiderbecke - Tiger Rag
TTITLE4=Dave Brubeck - Take Five
TTITLE5=Cab Calloway - Minnie The Moocher
TTITLE6=Ray Charles - Alexander's Ragtime Band
TTITLE7=King Cole Trio - Sweet Georgia Brown
TTITLE8=John Coltrane - Night In Tunisia
TTITLE9=Tommy Dorsey - Night And Day
TTITLE10=Duke Ellington - Take The 'A' Train
TTITLE11=Ella Fitzgerald - Sophisticated Lady
TTITLE12=Errol Garner - Misty
TTITLE13=George Gershwin - Rhapsody In Blue
TTITLE14=Stan Getz - Get Happy
TTITLE15=Dizzy Gillespie - Groovin' High
TTITLE16=Benny Goodman - Stompin' At The Savoy
TTITLE17=Lionel Hampton - Flying Home
TTITLE18=Coleman Hawkins - How Deep Is The Ocean
EXTD=YEAR: 2001
EXTT0=
EXTT1=
EXTT2=
EXTT3=
EXTT4=
EXTT5=
EXTT6=
EXTT7=
EXTT8=
EXTT9=
EXTT10=
EXTT11=
EXTT12=
EXTT13=
EXTT14=
EXTT15=
EXTT16=
EXTT17=
EXTT18=
PLAYORDER=
